<svg xmlns="http://www.w3.org/2000/svg" width="231.375" height="35.059"><defs><style>.cls-1{fill:#7c74ff;}.cls-2{fill:#94c1ff;}.cls-3{fill:#ef4041;}.cls-4{fill:#fff;}</style></defs><path class="cls-1" d="M25.08,0h206.3V35H25.08Z"/><path class="cls-2" d="M0,0H112.38V35H0Z"/><path class="cls-3" d="M0,0"/><path class="cls-3" d="M0,0"/><path class="cls-3" d="M0,0"/><path class="cls-4" d="M19.89,14.15h1.22v8.41h4v1H19.89Z"/><path class="cls-4" d="M29.81,14.15v9.44H28.6V14.15Z"/><path class="cls-4" d="M40.64,23.28a6.13,6.13,0,0,1-2.49.45A4.42,4.42,0,0,1,33.48,19a4.7,4.7,0,0,1,4.93-5,5,5,0,0,1,2.24.42l-.29,1a4.34,4.34,0,0,0-1.91-.4c-2.21,0-3.68,1.42-3.68,3.9,0,2.31,1.33,3.79,3.63,3.79a4.86,4.86,0,0,0,2-.39Z"/><path class="cls-4" d="M49.15,19.16H45.48v3.4h4.09v1H44.26V14.15h5.1v1H45.48v3h3.67Z"/><path class="cls-4" d="M53.25,23.59V14.15h1.33l3,4.77A27,27,0,0,1,59.3,22h0c-.11-1.27-.14-2.41-.14-3.89V14.15h1.15v9.44H59.1l-3-4.79a30.72,30.72,0,0,1-1.77-3.16l0,0c.07,1.19.1,2.32.1,3.89v4Z"/><path class="cls-4" d="M64.39,22.1a4.31,4.31,0,0,0,2.19.62c1.25,0,2-.66,2-1.61s-.5-1.39-1.78-1.88c-1.54-.55-2.49-1.35-2.49-2.68S65.5,14,67.33,14a4.27,4.27,0,0,1,2.09.46l-.33,1a3.75,3.75,0,0,0-1.8-.45c-1.29,0-1.78.77-1.78,1.41,0,.89.58,1.32,1.88,1.82,1.6.62,2.41,1.39,2.41,2.78s-1.08,2.72-3.31,2.72a4.79,4.79,0,0,1-2.4-.61Z"/><path class="cls-4" d="M78.45,19.16H74.78v3.4h4.09v1H73.56V14.15h5.1v1H74.78v3h3.67Z"/><path class="cls-4" d="M144.13,23.59h-2.36l-.94-2.11h-4.29l-.89,2.11h-2.3l4.18-9.28h2.3Zm-4-3.67-1.47-3.45-1.45,3.45Z"/><path class="cls-4" d="M147.85,23.59V14.31H150l4.39,6.19V14.31h2v9.28h-2.18l-4.33-6.05v6.05Z"/><path class="cls-4" d="M163.63,23.59V15.88h-3.19V14.31H169v1.57h-3.18v7.71Z"/><path class="cls-4" d="M172.86,23.59V14.31H175v9.28Z"/><path class="cls-4" d="M186,21.44l2-.19a1.16,1.16,0,0,0,.38.78,1.21,1.21,0,0,0,.81.25,1.42,1.42,0,0,0,1.09-.5,4,4,0,0,0,.57-2.1,2.63,2.63,0,0,1-1.94.77,3.13,3.13,0,0,1-2.19-.84,2.86,2.86,0,0,1-.92-2.2,2.87,2.87,0,0,1,1-2.27,3.89,3.89,0,0,1,5.15.22,5.09,5.09,0,0,1,1,3.6,5.12,5.12,0,0,1-1.09,3.66A3.76,3.76,0,0,1,189,23.75a3.31,3.31,0,0,1-2-.58A2.62,2.62,0,0,1,186,21.44Zm4.65-3.88a1.87,1.87,0,0,0-.45-1.34,1.46,1.46,0,0,0-1.06-.47,1.27,1.27,0,0,0-1,.39,1.78,1.78,0,0,0-.38,1.27,1.85,1.85,0,0,0,.41,1.32,1.4,1.4,0,0,0,1,.42,1.36,1.36,0,0,0,1-.4A1.62,1.62,0,0,0,190.6,17.56Z"/><path class="cls-4" d="M196.84,21.44l2-.19a1.21,1.21,0,0,0,.38.78,1.24,1.24,0,0,0,.81.25,1.42,1.42,0,0,0,1.09-.5,3.83,3.83,0,0,0,.57-2.1,2.63,2.63,0,0,1-1.94.77,3.14,3.14,0,0,1-2.19-.84,2.86,2.86,0,0,1-.92-2.2,2.9,2.9,0,0,1,1-2.27,3.9,3.9,0,0,1,5.16.22,5.14,5.14,0,0,1,1,3.6,5.12,5.12,0,0,1-1.09,3.66,3.74,3.74,0,0,1-2.84,1.13,3.31,3.31,0,0,1-2-.58A2.66,2.66,0,0,1,196.84,21.44Zm4.66-3.88a1.88,1.88,0,0,0-.46-1.34,1.46,1.46,0,0,0-1.06-.47,1.27,1.27,0,0,0-.95.39,1.78,1.78,0,0,0-.38,1.27,1.85,1.85,0,0,0,.41,1.32,1.4,1.4,0,0,0,1,.42,1.35,1.35,0,0,0,1-.4A1.62,1.62,0,0,0,201.5,17.56Z"/><path class="cls-4" d="M214.66,16.58l-2,.19a1.21,1.21,0,0,0-.38-.78,1.22,1.22,0,0,0-.8-.26,1.4,1.4,0,0,0-1.1.51,3.84,3.84,0,0,0-.57,2.11,2.54,2.54,0,0,1,1.91-.79,3.17,3.17,0,0,1,2.21.85,2.87,2.87,0,0,1,.92,2.19,2.88,2.88,0,0,1-1,2.28,3.92,3.92,0,0,1-5.16-.23,5.09,5.09,0,0,1-1-3.57,5.16,5.16,0,0,1,1.09-3.68,3.77,3.77,0,0,1,2.83-1.13,3.37,3.37,0,0,1,2,.59A2.73,2.73,0,0,1,214.66,16.58ZM210,20.46a1.84,1.84,0,0,0,.47,1.34,1.42,1.42,0,0,0,1,.47,1.27,1.27,0,0,0,1-.39,1.7,1.7,0,0,0,.38-1.26,1.83,1.83,0,0,0-.41-1.33,1.36,1.36,0,0,0-1-.42,1.43,1.43,0,0,0-1,.4A1.62,1.62,0,0,0,210,20.46Z"/></svg>