<svg xmlns="http://www.w3.org/2000/svg" width="231.375" height="35.059"><defs><style>.cls-1{fill:#7c74ff;}.cls-2{fill:#94c1ff;}.cls-3{fill:#ef4041;}.cls-4{fill:#fff;}</style></defs><path class="cls-1" d="M25.08,0h206.3V35H25.08Z"/><path class="cls-2" d="M0,0H112.38V35H0Z"/><path class="cls-3" d="M0,0"/><path class="cls-3" d="M0,0"/><path class="cls-3" d="M0,0"/><path class="cls-4" d="M8.64,10.83h1.82V23.45h6.05V25H8.64Z"/><path class="cls-4" d="M24.58,10.83V25H22.75V10.83Z"/><path class="cls-4" d="M41.86,24.52a9,9,0,0,1-3.74.67c-4,0-7-2.52-7-7.16a7,7,0,0,1,7.39-7.43,7.62,7.62,0,0,1,3.36.63l-.44,1.49a6.77,6.77,0,0,0-2.86-.59c-3.32,0-5.52,2.13-5.52,5.84,0,3.47,2,5.69,5.44,5.69a7.28,7.28,0,0,0,3-.59Z"/><path class="cls-4" d="M55.68,18.35H50.17v5.1h6.14V25h-8V10.83H56v1.54H50.17v4.47h5.51Z"/><path class="cls-4" d="M62.88,25V10.83h2L69.41,18A39.75,39.75,0,0,1,72,22.59l0,0c-.17-1.89-.21-3.61-.21-5.82V10.83H73.5V25H71.66l-4.5-7.18a45.13,45.13,0,0,1-2.64-4.72l-.07,0c.11,1.79.15,3.49.15,5.84v6Z"/><path class="cls-4" d="M80.65,22.76a6.46,6.46,0,0,0,3.27.92c1.87,0,3-1,3-2.41s-.75-2.08-2.67-2.82c-2.31-.81-3.73-2-3.73-4,0-2.2,1.82-3.84,4.57-3.84a6.52,6.52,0,0,1,3.13.69l-.5,1.5A5.53,5.53,0,0,0,85,12.11c-1.93,0-2.67,1.16-2.67,2.12,0,1.33.87,2,2.82,2.73,2.39.93,3.61,2.08,3.61,4.16s-1.62,4.07-5,4.07a7.27,7.27,0,0,1-3.61-.9Z"/><path class="cls-4" d="M102.78,18.35h-5.5v5.1h6.13V25h-8V10.83h7.64v1.54H97.28v4.47h5.5Z"/><path class="cls-4" d="M133.85,25h-3.31l-1.31-3.41h-6L122,25h-3.22l5.86-15h3.21ZM128.26,19l-2.07-5.58-2,5.58Z"/><path class="cls-4" d="M137.59,25V10h2.95l6.15,10V10h2.82V25h-3l-6.06-9.8V25Z"/><path class="cls-4" d="M158.21,25V12.5h-4.47V10h11.95V12.5h-4.45V25Z"/><path class="cls-4" d="M169.66,25V10h3V25Z"/><path class="cls-4" d="M185,21.51l2.79-.31a2,2,0,0,0,.53,1.26,1.57,1.57,0,0,0,1.14.41,1.85,1.85,0,0,0,1.52-.82,7,7,0,0,0,.8-3.4,3.44,3.44,0,0,1-2.72,1.26A4.08,4.08,0,0,1,186,18.54,5,5,0,0,1,184.75,15a5.09,5.09,0,0,1,1.36-3.69,4.92,4.92,0,0,1,7.22.37q1.46,1.77,1.46,5.82t-1.52,5.95a5,5,0,0,1-4,1.82,4.17,4.17,0,0,1-2.85-.94A4.51,4.51,0,0,1,185,21.51Zm6.52-6.3a3.26,3.26,0,0,0-.64-2.16,1.89,1.89,0,0,0-1.48-.77,1.68,1.68,0,0,0-1.33.63,3.23,3.23,0,0,0-.53,2.07,3.27,3.27,0,0,0,.58,2.13,1.83,1.83,0,0,0,2.84,0A2.92,2.92,0,0,0,191.56,15.21Z"/><path class="cls-4" d="M198.82,21.51l2.79-.31a2,2,0,0,0,.53,1.26,1.57,1.57,0,0,0,1.14.41,1.85,1.85,0,0,0,1.52-.82,7,7,0,0,0,.8-3.4,3.44,3.44,0,0,1-2.72,1.26,4.08,4.08,0,0,1-3.06-1.37A5,5,0,0,1,198.53,15a5.09,5.09,0,0,1,1.36-3.69,4.92,4.92,0,0,1,7.22.37q1.45,1.77,1.46,5.82t-1.52,5.95a5,5,0,0,1-4,1.82,4.17,4.17,0,0,1-2.85-.94A4.51,4.51,0,0,1,198.82,21.51Zm6.52-6.3a3.26,3.26,0,0,0-.64-2.16,1.89,1.89,0,0,0-1.48-.77,1.68,1.68,0,0,0-1.33.63,3.23,3.23,0,0,0-.53,2.07,3.27,3.27,0,0,0,.58,2.13,1.82,1.82,0,0,0,2.83,0A2.87,2.87,0,0,0,205.34,15.21Z"/><path class="cls-4" d="M222.3,13.63l-2.79.31a2,2,0,0,0-.53-1.27,1.58,1.58,0,0,0-1.12-.41,1.87,1.87,0,0,0-1.54.82,6.93,6.93,0,0,0-.8,3.41,3.4,3.4,0,0,1,2.68-1.27,4.08,4.08,0,0,1,3.09,1.38,5,5,0,0,1,1.29,3.54,5.08,5.08,0,0,1-1.36,3.71,4.92,4.92,0,0,1-7.21-.38q-1.47-1.77-1.47-5.8c0-2.75.51-4.74,1.53-6a4.93,4.93,0,0,1,4-1.83,4.2,4.2,0,0,1,2.83,1A4.47,4.47,0,0,1,222.3,13.63Zm-6.53,6.29a3.27,3.27,0,0,0,.65,2.17,1.89,1.89,0,0,0,1.47.76,1.72,1.72,0,0,0,1.34-.62,3.19,3.19,0,0,0,.53-2.05,3.25,3.25,0,0,0-.58-2.15,1.77,1.77,0,0,0-1.43-.68,1.79,1.79,0,0,0-1.41.65A2.82,2.82,0,0,0,215.77,19.92Z"/></svg>