<svg xmlns="http://www.w3.org/2000/svg" width="231.375" height="35.059"><defs><style>.cls-1{fill:#7c74ff;}.cls-2{fill:#94c1ff;}.cls-3{fill:#ef4041;}.cls-4{fill:#fff;}</style></defs><path class="cls-1" d="M25.08,0h206.3V35H25.08Z"/><path class="cls-2" d="M0,0H112.38V35H0Z"/><path class="cls-3" d="M0,0"/><path class="cls-3" d="M0,0"/><path class="cls-3" d="M0,0"/><path class="cls-4" d="M17.15,13.59h1.3v9h4.32V23.7H17.15Z"/><path class="cls-4" d="M27.78,13.59V23.7h-1.3V13.59Z"/><path class="cls-4" d="M39.38,23.37a6.48,6.48,0,0,1-2.67.48,4.73,4.73,0,0,1-5-5.11A5,5,0,0,1,37,13.43a5.4,5.4,0,0,1,2.4.45l-.31,1.06a4.77,4.77,0,0,0-2-.42c-2.37,0-3.95,1.52-3.95,4.17,0,2.48,1.43,4.07,3.89,4.07a5.34,5.34,0,0,0,2.13-.42Z"/><path class="cls-4" d="M48.5,19H44.57v3.65H49V23.7H43.26V13.59h5.46v1.1H44.57v3.19H48.5Z"/><path class="cls-4" d="M52.89,23.7V13.59h1.43l3.24,5.12A28.49,28.49,0,0,1,59.37,22h0c-.12-1.35-.15-2.58-.15-4.16V13.59h1.23V23.7H59.16L56,18.57a33,33,0,0,1-1.89-3.37h0c.07,1.28.1,2.49.1,4.17V23.7Z"/><path class="cls-4" d="M64.83,22.11a4.64,4.64,0,0,0,2.34.66c1.34,0,2.12-.7,2.12-1.72s-.54-1.49-1.91-2c-1.65-.59-2.67-1.44-2.67-2.87S66,13.43,68,13.43a4.67,4.67,0,0,1,2.24.49L69.86,15a4,4,0,0,0-1.92-.48c-1.38,0-1.91.82-1.91,1.51,0,.95.62,1.41,2,1.95,1.71.66,2.58,1.49,2.58,3s-1.15,2.91-3.54,2.91a5.24,5.24,0,0,1-2.58-.64Z"/><path class="cls-4" d="M79.89,19H76v3.65h4.38V23.7H74.66V13.59h5.46v1.1H76v3.19h3.93Z"/><path class="cls-4" d="M140.54,23.7h-2.36l-.94-2.44H133l-.88,2.44h-2.3L134,13h2.29Zm-4-4.24-1.48-4-1.45,4Z"/><path class="cls-4" d="M144.71,23.7V13h2.11l4.4,7.17V13h2V23.7h-2.18l-4.32-7v7Z"/><path class="cls-4" d="M160.94,23.7V14.78h-3.19V13h8.54v1.81h-3.18V23.7Z"/><path class="cls-4" d="M170.62,23.7V13h2.17V23.7Z"/><path class="cls-4" d="M184.61,21.22l2-.22a1.45,1.45,0,0,0,.38.9,1.13,1.13,0,0,0,.82.29,1.32,1.32,0,0,0,1.08-.58,4.93,4.93,0,0,0,.57-2.43,2.45,2.45,0,0,1-1.94.9,2.94,2.94,0,0,1-2.19-1,3.56,3.56,0,0,1-.91-2.54,3.63,3.63,0,0,1,1-2.64,3.5,3.5,0,0,1,5.15.27,6.49,6.49,0,0,1,1.05,4.15,6.6,6.6,0,0,1-1.1,4.25,3.51,3.51,0,0,1-2.84,1.3,3,3,0,0,1-2-.67A3.21,3.21,0,0,1,184.61,21.22Zm4.66-4.5a2.3,2.3,0,0,0-.46-1.54,1.35,1.35,0,0,0-1.06-.55,1.19,1.19,0,0,0-.95.45,2.31,2.31,0,0,0-.37,1.48,2.28,2.28,0,0,0,.41,1.52,1.26,1.26,0,0,0,1,.49,1.27,1.27,0,0,0,1-.47A2,2,0,0,0,189.27,16.72Z"/><path class="cls-4" d="M196,21.22l2-.22a1.4,1.4,0,0,0,.39.9,1.09,1.09,0,0,0,.81.29,1.32,1.32,0,0,0,1.08-.58,4.93,4.93,0,0,0,.57-2.43,2.44,2.44,0,0,1-1.94.9,2.9,2.9,0,0,1-2.18-1,3.53,3.53,0,0,1-.92-2.54,3.63,3.63,0,0,1,1-2.64,3.5,3.5,0,0,1,5.15.27,6.49,6.49,0,0,1,1,4.15,6.67,6.67,0,0,1-1.09,4.25,3.54,3.54,0,0,1-2.85,1.3,3,3,0,0,1-2-.67A3.21,3.21,0,0,1,196,21.22Zm4.66-4.5a2.3,2.3,0,0,0-.46-1.54,1.34,1.34,0,0,0-1.06-.55,1.17,1.17,0,0,0-.94.45,2.25,2.25,0,0,0-.38,1.48,2.28,2.28,0,0,0,.41,1.52,1.26,1.26,0,0,0,1,.49,1.27,1.27,0,0,0,1-.47A2,2,0,0,0,200.61,16.72Z"/><path class="cls-4" d="M214.22,15.6l-2,.22a1.48,1.48,0,0,0-.38-.91,1.1,1.1,0,0,0-.8-.3,1.36,1.36,0,0,0-1.1.59,4.94,4.94,0,0,0-.57,2.44,2.39,2.39,0,0,1,1.91-.91,2.93,2.93,0,0,1,2.21,1,3.59,3.59,0,0,1,.92,2.54,3.61,3.61,0,0,1-1,2.64,3.5,3.5,0,0,1-5.15-.27,6.47,6.47,0,0,1-1.05-4.14,6.59,6.59,0,0,1,1.09-4.25,3.52,3.52,0,0,1,2.83-1.31,3,3,0,0,1,2,.69A3.14,3.14,0,0,1,214.22,15.6Zm-4.66,4.48a2.31,2.31,0,0,0,.46,1.55,1.35,1.35,0,0,0,1,.55,1.19,1.19,0,0,0,1-.45,2.18,2.18,0,0,0,.39-1.46,2.4,2.4,0,0,0-.41-1.54,1.31,1.31,0,0,0-1-.48,1.28,1.28,0,0,0-1,.46A2,2,0,0,0,209.56,20.08Z"/></svg>