<svg xmlns="http://www.w3.org/2000/svg" width="231.375" height="35.059"><defs><style>.cls-1{fill:#7c74ff;}.cls-2{fill:#94c1ff;}.cls-3{fill:#ef4041;}.cls-4{fill:#fff;}</style></defs><path class="cls-1" d="M25.08,0h206.3V35H25.08Z"/><path class="cls-2" d="M0,0H112.38V35H0Z"/><path class="cls-3" d="M0,0"/><path class="cls-3" d="M0,0"/><path class="cls-3" d="M0,0"/><path class="cls-4" d="M22.65,22.23h4.52v1.39H20.92v-10h1.73Z"/><path class="cls-4" d="M32.42,23.62H30.7v-10h1.72Z"/><path class="cls-4" d="M44.24,20.38a3.59,3.59,0,0,1-1.17,2.48,4.45,4.45,0,0,1-4.83.33,3.66,3.66,0,0,1-1.39-1.61,5.82,5.82,0,0,1-.52-2.41v-.93a5.87,5.87,0,0,1,.5-2.48,3.79,3.79,0,0,1,1.43-1.65,4,4,0,0,1,2.16-.58,3.81,3.81,0,0,1,2.65.89,3.7,3.7,0,0,1,1.17,2.52H42.52a2.39,2.39,0,0,0-.63-1.54,2,2,0,0,0-1.47-.48,2,2,0,0,0-1.73.82,4.16,4.16,0,0,0-.62,2.42v.89a4.34,4.34,0,0,0,.58,2.46,1.9,1.9,0,0,0,1.69.85,2.2,2.2,0,0,0,1.53-.46,2.39,2.39,0,0,0,.65-1.52Z"/><path class="cls-4" d="M53.7,19.17H49.62v3.06H54.4v1.39H47.89v-10h6.46v1.4H49.62V17.8H53.7Z"/><path class="cls-4" d="M65.8,23.62H64.07l-4.44-7.07v7.07H57.9v-10h1.73l4.45,7.09V13.66H65.8Z"/><path class="cls-4" d="M75.15,21.05a1.2,1.2,0,0,0-.47-1A5.33,5.33,0,0,0,73,19.32a8.47,8.47,0,0,1-1.92-.8,2.58,2.58,0,0,1-1.36-2.23,2.42,2.42,0,0,1,1-2,4,4,0,0,1,2.54-.77,4.22,4.22,0,0,1,1.85.38A3,3,0,0,1,76.4,15a2.79,2.79,0,0,1,.47,1.57H75.15a1.57,1.57,0,0,0-.49-1.22,2,2,0,0,0-1.4-.44,2.12,2.12,0,0,0-1.32.36,1.21,1.21,0,0,0-.47,1,1.07,1.07,0,0,0,.51.91,5.64,5.64,0,0,0,1.67.71,7.85,7.85,0,0,1,1.86.79,3,3,0,0,1,1,1A2.63,2.63,0,0,1,76.87,21a2.36,2.36,0,0,1-1,2,4.13,4.13,0,0,1-2.59.73,4.77,4.77,0,0,1-2-.4,3.21,3.21,0,0,1-1.41-1.1,2.72,2.72,0,0,1-.5-1.64h1.73a1.59,1.59,0,0,0,.56,1.31,2.44,2.44,0,0,0,1.6.46A2.15,2.15,0,0,0,74.69,22,1.19,1.19,0,0,0,75.15,21.05Z"/><path class="cls-4" d="M86.31,19.17H82.22v3.06H87v1.39H80.49v-10H87v1.4H82.22V17.8h4.09Z"/><path class="cls-4" d="M139.25,21.55h-4l-.74,2h-2.73L136,13.09h2.64l4.19,10.5H140Zm-.78-2.19L137.25,16,136,19.36Z"/><path class="cls-4" d="M154.85,13.09v10.5h-2.21L148.46,18v5.6h-2.62V13.09H148l4.18,5.59V13.09Z"/><path class="cls-4" d="M161.06,15.44h-2.91V13.09h8.48v2.35h-2.9v8.15h-2.67Z"/><path class="cls-4" d="M169.93,13.09h2.67v10.5h-2.67Z"/><path class="cls-4" d="M189.24,14.21a5.65,5.65,0,0,1,1.18,3.84,7.06,7.06,0,0,1-.63,3.1,4.53,4.53,0,0,1-1.77,2,5.15,5.15,0,0,1-2.65.68,5.54,5.54,0,0,1-1.53-.21A3.93,3.93,0,0,1,182.6,23l1-2.13a2.75,2.75,0,0,0,1.75.54,2.26,2.26,0,0,0,1.64-.62A2.82,2.82,0,0,0,187.7,19a3,3,0,0,1-2.13.77,3.24,3.24,0,0,1-1.63-.42,3,3,0,0,1-1.19-1.17,3.39,3.39,0,0,1-.43-1.73,3.54,3.54,0,0,1,.49-1.88,3.25,3.25,0,0,1,1.34-1.26,3.88,3.88,0,0,1,1.87-.44A4.06,4.06,0,0,1,189.24,14.21Zm-2.08,3.07a1.34,1.34,0,0,0,.36-1,1.29,1.29,0,0,0-.36-.95,1.41,1.41,0,0,0-1.89,0,1.33,1.33,0,0,0-.36,1,1.3,1.3,0,0,0,.36,1,1.27,1.27,0,0,0,.94.36A1.31,1.31,0,0,0,187.16,17.28Z"/><path class="cls-4" d="M200.32,14.21a5.65,5.65,0,0,1,1.17,3.84,7.06,7.06,0,0,1-.63,3.1,4.53,4.53,0,0,1-1.77,2,5.09,5.09,0,0,1-2.64.68,5.54,5.54,0,0,1-1.53-.21,4,4,0,0,1-1.25-.56l1-2.13a2.74,2.74,0,0,0,1.74.54,2.26,2.26,0,0,0,1.65-.62,2.81,2.81,0,0,0,.73-1.81,3,3,0,0,1-2.12.77,3.31,3.31,0,0,1-1.64-.42,3,3,0,0,1-1.18-1.17,3.4,3.4,0,0,1-.44-1.73,3.63,3.63,0,0,1,.49-1.88,3.32,3.32,0,0,1,1.34-1.26,4,4,0,0,1,1.88-.44A4.08,4.08,0,0,1,200.32,14.21Zm-2.09,3.07a1.3,1.3,0,0,0,.37-1,1.29,1.29,0,0,0-.36-.95,1.27,1.27,0,0,0-1-.37,1.22,1.22,0,0,0-.92.36,1.33,1.33,0,0,0-.36,1,1.3,1.3,0,0,0,.36,1,1.25,1.25,0,0,0,.94.36A1.29,1.29,0,0,0,198.23,17.28Z"/><path class="cls-4" d="M211.19,17.31a3,3,0,0,1,1.18,1.17,3.3,3.3,0,0,1,.44,1.73,3.54,3.54,0,0,1-.49,1.88A3.32,3.32,0,0,1,211,23.35a3.94,3.94,0,0,1-1.89.45,4,4,0,0,1-3.2-1.34,5.6,5.6,0,0,1-1.18-3.84,7.06,7.06,0,0,1,.63-3.1,4.57,4.57,0,0,1,1.76-2,5.08,5.08,0,0,1,2.64-.67,5.91,5.91,0,0,1,1.54.19,3.69,3.69,0,0,1,1.25.57l-1,2.13a2.74,2.74,0,0,0-1.74-.54,2.24,2.24,0,0,0-1.66.63,2.74,2.74,0,0,0-.73,1.82,2.94,2.94,0,0,1,2.13-.78A3.27,3.27,0,0,1,211.19,17.31Zm-1.33,4a1.51,1.51,0,0,0,0-1.93,1.42,1.42,0,0,0-1.89,0,1.34,1.34,0,0,0-.36,1,1.24,1.24,0,0,0,1.32,1.32A1.26,1.26,0,0,0,209.86,21.32Z"/></svg>